# xmcd CD database file
#
# Track frame offsets:
#	150
#	22812
#	43337
#	65962
#
# Disc length: 1147 seconds
#
# Revision: 2
# Processed by: cddbd v1.5.1PL0 Copyright (c) Steve Scherf et al.
# Submitted via: CDex 1.51
#
DISCID=34047904
DTITLE=木村カエラ - happiness!!
DYEAR=2004
DGENRE=JPop
TTITLE0=happiness!!!
TTITLE1=untie
TTITLE2=HAPPINESS!!! (Instrumental)
TTITLE3=untie (Instrumental)
EXTD=YEAR: 2004
EXTT0=
EXTT1=
EXTT2=
EXTT3=
PLAYORDER=
